# xmcd
#
# Track frame offsets:
#  150
#  22983
#  47800
#  80107
#  101389
#  120637
#  139505
#  170030
#  180827
#  203547
#  222993
#  243040
#  260888
#
# Disc length: 3706 seconds
#
# Revision: 0
# Processed by: cddbd v1.5.1PL0 Copyright (c) Steve Scherf et al.
# Submitted via: Collectorz.com_Music_Collector 6.9
#
DISCID=ac0e780d
DTITLE=guy clark, joe ely, john hiatt and lyle lovett - civic auditorium, santa cruz - february 17 2003
DYEAR=2003
DGENRE=
TTITLE0=guy clark - stuff that works
TTITLE1=joe ely - all just to get to you
TTITLE2=john hiatt - ethylene
TTITLE3=lyle lovett - record lady
TTITLE4=guy clark - texas 1947
TTITLE5=joe ely - twisty river bridge
TTITLE6=john hiatt - perfectly good guitar
TTITLE7=lyle lovett - black's my truck's name
TTITLE8=guy clark - let him roll
TTITLE9=joe ely - ranches and rivers
TTITLE10=john hiatt - crossing muddy waters
TTITLE11=lyle lovett - la county
TTITLE12=guy clark - the cape
EXTD=
EXTT0=
EXTT1=
EXTT2=
EXTT3=
EXTT4=
EXTT5=
EXTT6=
EXTT7=
EXTT8=
EXTT9=
EXTT10=
EXTT11=
EXTT12=
PLAYORDER=
